<svg width="24" height="24" viewBox="0 0 24 24" fill="none" xmlns="http://www.w3.org/2000/svg">
<path d="M17.9194 21H6.07938C5.94104 21.0004 5.80412 20.9722 5.67727 20.917C5.55042 20.8618 5.4364 20.7809 5.34241 20.6794C5.24843 20.5779 5.17652 20.458 5.13125 20.3273C5.08597 20.1966 5.06831 20.0579 5.07938 19.92L5.92938 8.92001C5.94953 8.66889 6.06372 8.43463 6.24912 8.26407C6.43451 8.0935 6.67746 7.9992 6.92938 8.00001H17.0694C17.3213 7.9992 17.5642 8.0935 17.7496 8.26407C17.935 8.43463 18.0492 8.66889 18.0694 8.92001L18.9194 19.92C18.9304 20.0579 18.9128 20.1966 18.8675 20.3273C18.8222 20.458 18.7503 20.5779 18.6563 20.6794C18.5624 20.7809 18.4483 20.8618 18.3215 20.917C18.1946 20.9722 18.0577 21.0004 17.9194 21Z" stroke="black" stroke-width="1.5" stroke-linecap="round" stroke-linejoin="round"/>
<path d="M9 11V6C9 5.20435 9.31607 4.44129 9.87868 3.87868C10.4413 3.31607 11.2044 3 12 3C12.7956 3 13.5587 3.31607 14.1213 3.87868C14.6839 4.44129 15 5.20435 15 6V11" stroke="black" stroke-width="1.5" stroke-linecap="round" stroke-linejoin="round"/>
</svg>
