<svg width="25" height="22" viewBox="0 0 25 22" fill="none" xmlns="http://www.w3.org/2000/svg">
<path d="M21.462 2.8C22.6077 3.9503 23.251 5.5077 23.251 7.13125C23.251 8.7548 22.6077 10.3122 21.462 11.4625L11.9995 21L2.53696 11.4625C1.68602 10.6058 1.10668 9.51714 0.871474 8.33279C0.636266 7.14843 0.755641 5.921 1.21465 4.80416C1.67367 3.68732 2.45192 2.73069 3.45199 2.05402C4.45207 1.37735 5.62952 1.01071 6.83696 1C8.45152 1.0098 9.9969 1.6567 11.137 2.8C11.4695 3.12903 11.7593 3.4986 11.9995 3.9C12.2397 3.4986 12.5295 3.12903 12.862 2.8C13.4237 2.23007 14.0931 1.77749 14.8313 1.46858C15.5695 1.15967 16.3617 1.00059 17.162 1.00059C17.9622 1.00059 18.7544 1.15967 19.4926 1.46858C20.2308 1.77749 20.9002 2.23007 21.462 2.8Z" stroke="black" stroke-width="1.5" stroke-linecap="round" stroke-linejoin="round"/>
</svg>
