<svg width="24" height="24" viewBox="0 0 24 24" fill="none" xmlns="http://www.w3.org/2000/svg">
<path d="M23.25 23.25L17.825 17.825M20.75 10.75C20.75 12.7278 20.1635 14.6612 19.0647 16.3057C17.9659 17.9502 16.4041 19.2319 14.5768 19.9888C12.7496 20.7457 10.7389 20.9437 8.7991 20.5579C6.85929 20.172 5.07746 19.2196 3.67894 17.8211C2.28041 16.4225 1.328 14.6407 0.942152 12.7009C0.556299 10.7611 0.754333 8.75043 1.51121 6.92317C2.26809 5.0959 3.54981 3.53412 5.1943 2.4353C6.83879 1.33649 8.77219 0.75 10.75 0.75C13.4022 0.75 15.9457 1.80357 17.8211 3.67893C19.6964 5.5543 20.75 8.09784 20.75 10.75Z" stroke="black" stroke-width="1.5" stroke-linecap="round" stroke-linejoin="round"/>
</svg>
