<svg width="37" height="37" viewBox="0 0 37 37" fill="none" xmlns="http://www.w3.org/2000/svg">
<path d="M10.7222 18.5H26.2778M26.2778 18.5L21.4167 13.6389M26.2778 18.5L21.4167 23.3611M18.5 36C15.0388 36 11.6554 34.9736 8.77753 33.0507C5.89967 31.1278 3.65665 28.3947 2.33212 25.197C1.00759 21.9993 0.661024 18.4806 1.33627 15.0859C2.01151 11.6913 3.67822 8.57306 6.12564 6.12564C8.57306 3.67822 11.6913 2.01151 15.0859 1.33627C18.4806 0.661024 21.9993 1.00759 25.197 2.33212C28.3947 3.65665 31.1278 5.89967 33.0507 8.77753C34.9736 11.6554 36 15.0388 36 18.5C36 23.1413 34.1563 27.5925 30.8744 30.8744C27.5925 34.1563 23.1413 36 18.5 36Z" stroke="white" stroke-width="1.5" stroke-linecap="round" stroke-linejoin="round"/>
</svg>
