<svg width="22" height="24" viewBox="0 0 22 24" fill="none" xmlns="http://www.w3.org/2000/svg">
<path d="M16 5.75C16 6.73891 15.7068 7.7056 15.1573 8.52785C14.6079 9.3501 13.827 9.99096 12.9134 10.3694C11.9998 10.7478 10.9945 10.8469 10.0245 10.6539C9.05464 10.461 8.16373 9.9848 7.46447 9.28553C6.7652 8.58627 6.289 7.69536 6.09607 6.72545C5.90315 5.75555 6.00216 4.75021 6.3806 3.83658C6.75904 2.92295 7.3999 2.14206 8.22215 1.59265C9.0444 1.04324 10.0111 0.75 11 0.75C12.3261 0.75 13.5979 1.27678 14.5355 2.21447C15.4732 3.15215 16 4.42392 16 5.75ZM16 15.75H6C4.67392 15.75 3.40215 16.2768 2.46447 17.2145C1.52678 18.1521 1 19.4239 1 20.75C1 21.413 1.26339 22.0489 1.73223 22.5178C2.20107 22.9866 2.83696 23.25 3.5 23.25H18.5C19.163 23.25 19.7989 22.9866 20.2678 22.5178C20.7366 22.0489 21 21.413 21 20.75C21 19.4239 20.4732 18.1521 19.5355 17.2145C18.5979 16.2768 17.3261 15.75 16 15.75Z" stroke="black" stroke-width="1.5" stroke-linecap="round" stroke-linejoin="round"/>
</svg>
